<?xml version="1.0" encoding="UTF-8"?>
<svg viewBox="0 0 417.92 224.15" xmlns="http://www.w3.org/2000/svg">
 <defs>
  <linearGradient id="a" x1=".010156" x2=".98281" y1=".98328">
   <stop stop-color="#0054a4" offset=".004844"/>
   <stop stop-color="#00bf5f" stop-opacity=".996" offset="1"/>
   <stop stop-color="#ffab5b" offset="1"/>
  </linearGradient>
 </defs>
 <g fill-rule="evenodd">
  <path d="m96.242 137.37c-6.558 7.242-18.018-0.87-11.618-8.94 5.853-7.381 14.17 1.957 11.618 8.94"/>
  <path d="m315.36 184.89c2.385 1.389 3.159 4.08 3.303 6.672 0.091003 1.625-1.104 7.13 0.16699 7.859 4.235 2.433 10.292-4.253 15.021-4.478 8.574-0.40799 3.397 10.549 0.19 13.699-4.966 4.879-11.944 7.448-18.675 8.689-5.385 0.994-13.795 1.558-18.683-1.344-4.2-2.494-6.963-6.929-11.532-8.877-6.037-2.574-12.103 0.93201-17.382 3.747-6.853 3.654-12.928 7.102-20.978 5.424-5.754-1.2-10.202-5.074-15.191-7.632-6.323-3.243-15.247-1.465-21.604 0.75299-15.364 5.359-27.021 15.337-44.074 9.622-11.805-3.956-25.769-15.172-38.715-10.439-7.357 2.689-13.625 7.174-20.517 10.753-7.25 3.764-14.788 4.863-22.886 4.806-6.145-0.042999-11.828-1.007-17.264-3.957-4.983-2.704-5.936-9.379 0.18-11.537-7.627-1.351-15.436 0.40601-23.073-0.873-5.325-0.892-15.184-0.584-17.124-6.813-1.535-4.929 1.804-11.021 7.317-11.034 3.101-0.005997 6.912 0.44801 10.08 0.72101 4.083 0.35001 8.202 0.243 12.274-0.19701 7.039-0.76199 14.055-2.494 20.528-5.387 4.633-2.071 13.269-6.218 13.518-12.177-0.094994-2.557-15.216 5.32-16.947 5.922-7.618 2.645-15.581 4.63-23.631 5.274-6.974 0.55901-14.288 0.368-21.226-0.634-8.628-1.246-11.619-6.034-15.956-12.962-8.036-12.835-12.6-28.282-12.48-43.44 0.122-15.427-0.672-33.508 5.288-47.997 4.703-11.435 11.107-22.257 19.654-31.249 19.755-20.783 48.783-26.752 76.089-30.028 17.497-2.099 35.255-0.429 52.845-1.559 16.224-1.042 31.632-1.175 47.486 2.351 13.827 3.076 27.368 9.211 39.223 17.058 11.783 7.801 20.389 17.661 29.47 28.271 4.907 5.734 8.411 12.477 12.906 18.513 5.186 6.965 10.647 13.733 16.438 20.206 5.237 5.856 10.661 11.983 16.502 17.239 5.89 5.301 13.615 8.019 21.061 10.314 12.926 1.172 27.572 0.812 37.792-8.553 5.03-4.609 6.789-10.924 6.166-17.608-0.55499-5.942-2.254-15.076-8.438-17.692-7.319-3.096-11.764 4.21-15.223 9.366-4.847 7.224-8.133 15.124-15.238 20.346-4.974 3.656-13.981 3.606-19.337 0.925-6.992-3.501-9.499-9.334-11.717-16.44-4.524-14.5-6.201-28.75-17.123-40.296-4.547-4.808-9.989-8.681-15.757-11.889-3.015-1.676-6.125-3.178-9.285-4.56-3.681-1.608-7.869-2.104-11.28-4.32-12.172-7.904-11.572-26.574 0.845-33.817 13.623-7.946 30.122-4.358 44.893-5.43 26.15-1.899 54.908 9.727 74.683 26.477 10.86 9.2 19.048 20.892 25.553 33.386 6.307 12.115 11.239 26.27 13.431 39.753 4.179 25.702-4.897 54.1-24.974 71.121-10.186 8.636-21.635 13.35-34.37 16.439-14.384 3.491-27.949-0.47299-42.223-2.487" fill="url(#a)"/>
  <path d="m86.882 126.57c-8.909 4.54-1.331 18.344 7.479 12.454 7.383-4.936-0.303-14.224-7.479-12.454" fill="#fff"/>
 </g>
</svg>
